<svg id="Layer_1" enable-background="new 0 0 512 512" height="512" viewBox="0 0 512 512" width="512" xmlns="http://www.w3.org/2000/svg"><g><g><g><g><g><g id="XMLID_1943_"><g id="XMLID_1944_"><g id="XMLID_1945_"><g id="XMLID_1946_"><g id="XMLID_1947_"><g id="XMLID_1948_"><g id="XMLID_1949_"><g id="XMLID_1950_"><g id="XMLID_1951_"><g id="XMLID_1952_"><g id="XMLID_1953_"><g id="XMLID_1954_"><g id="XMLID_1955_"><g id="XMLID_1956_"><g id="XMLID_1957_"><path d="m0 256c0-141.385 114.615-256 256-256s256 114.615 256 256c0 56.712-18.441 109.116-49.654 151.545-46.601 63.347-121.673 35.767-206.346 35.767s-159.745 27.58-206.346-35.767c-31.213-42.429-49.654-94.833-49.654-151.545z" fill="#98f9ff"/></g></g></g></g></g></g></g></g></g></g></g></g></g></g></g></g></g></g></g><path d="m153.611 201.605 37.074 36.498s17.533 9.511 23.591 15.827l2.628 59.503-134.19 123.132c45.593 23.921 106.446 6.747 173.286 6.747 84.673 0 159.745 27.58 206.347-35.767 31.212-42.429 49.653-94.833 49.653-151.545 0-10.417-.638-20.685-1.848-30.776l-164.907-164.908z" fill="#7dd5f4"/><path d="m199.97 244.721h112.06v118.84h-112.06z" fill="#68463e"/><path d="m256 244.724h56.03v118.84h-56.03z" fill="#492b25"/><path d="m350.126 478.787h-188.254l37.23-129.33h113.796z" fill="#875d54"/><path d="m312.898 349.457 37.23 129.33h-94.129v-129.33z" fill="#68463e"/><path d="m462.34 407.54c-39.13 53.18-98.32 90.7-166.41 101.35-5.15.81-10.36 1.47-15.61 1.96-8.01.76-16.12 1.15-24.32 1.15s-16.31-.39-24.32-1.15c-5.25-.49-10.46-1.15-15.61-1.96-68.09-10.65-127.28-48.17-166.41-101.35l2.18-36.37c1.56-25.96 23.07-46.21 49.07-46.21h98.19l56.9 24.5 56.9-24.5h98.19c26 0 47.51 20.25 49.07 46.21z" fill="#fff"/><path d="m462.34 407.54c-42.09 57.21-107.39 96.29-182.02 103.31-8.01.76-16.12 1.15-24.32 1.15v-162.543l56.9-24.497h98.19c26 0 47.51 20.25 49.07 46.21z" fill="#e0e0e0"/><path d="m256 349.457-38.104 21.706 23.887 49.878h14.217 14.217l23.887-49.878z" fill="#ff7d47"/><path d="m294.1 371.16-19.1 39.89-4.78 9.99h-14.22v-71.58z" fill="#ff4a4a"/><path d="m295.93 508.89c-5.15.81-10.36 1.47-15.61 1.96-8.01.76-16.12 1.15-24.32 1.15s-16.31-.39-24.32-1.15c-5.25-.49-10.46-1.15-15.61-1.96l20.93-97.84h38z" fill="#ff4a4a"/><path d="m295.93 508.89c-5.15.81-10.36 1.47-15.61 1.96-8.01.76-16.12 1.15-24.32 1.15v-100.95h19z" fill="#d0004f"/><g><path d="m199.97 292.083-43.195 32.877 48.946 65.995 50.279-41.498z" fill="#e0e0e0"/><path d="m312.03 292.083 42.045 32.879-47.796 65.993-50.279-41.498z" fill="#a8a8a8"/></g><path d="m349.62 135.382c-3.955-60.043-52.523-82.233-93.62-82.233s-89.666 22.19-93.62 82.233c-10.627 2.055-18.177 15.995-16.988 27.265l1.822 25.648c1.247 11.835 11.65 20.476 23.115 19.19l1.977-.214c23.485 63.063 60.316 69.638 83.694 73.33 23.378-3.692 60.209-10.267 83.694-73.33l1.977.214c11.465 1.286 21.868-7.354 23.115-19.19l1.822-25.648c1.189-11.271-6.36-25.21-16.988-27.265z" fill="#875d54"/><path d="m366.609 162.647-1.822 25.648c-1.247 11.835-11.65 20.476-23.115 19.19l-1.977-.214c-8.026 21.528-17.602 36.48-27.664 46.971-19.405 20.241-40.631 23.923-56.031 26.358v-227.451c41.097 0 89.665 22.19 93.62 82.233 10.628 2.055 18.177 15.994 16.989 27.265z" fill="#68463e"/><path d="m256 26.617c-.003 0-101.252.001-105.225 74.332 0 0 4.561 54.059 18.076 70.953l14.701-44.104c4.475-13.424 19.126-20.452 32.435-15.648 10.885 3.929 24.784 7.382 40.013 7.382 15.229 0 29.127-3.453 40.013-7.382 13.309-4.804 27.961 2.225 32.435 15.648l14.701 44.104c13.515-16.894 18.076-70.953 18.076-70.953-3.973-74.331-105.222-74.332-105.225-74.332z" fill="#383838"/><path d="m361.23 100.95s-4.57 54.06-18.08 70.95l-14.7-44.1c-4.48-13.42-19.13-20.45-32.44-15.65-5.44 1.97-11.63 3.81-18.37 5.16-6.74 1.36-14.02 2.22-21.64 2.22v-92.91s101.25 0 105.23 74.33z" fill="#1e1c1c"/></g></svg>