<svg id="Capa_1" enable-background="new 0 0 512 512" height="512" viewBox="0 0 512 512" width="512" xmlns="http://www.w3.org/2000/svg"><g><path d="m151.173 408.023h209.654v33.915h-209.654z" fill="#e7a561"/><path d="m151.173 424.98h209.654v16.957h-209.654z" fill="#e49542"/><path d="m228.865 313.887c0 3.008-.68 6.068-2.101 8.942l-31.812 64.303-56.206 113.617c-4.955 10.003-17.07 14.103-27.083 9.148-10.003-4.945-14.103-17.07-9.148-27.073l47.995-97.031 40.012-80.889c4.955-10.003 17.08-14.103 27.083-9.148 7.13 3.523 11.26 10.683 11.26 18.131z" fill="#e7a561"/><path d="m217.539 295.724c-3.853 1.896-7.149 5.027-9.199 9.179l-88.018 177.909c-4.945 10.013-.845 22.128 9.158 27.083.021.01.041.021.062.031-5.439 2.658-12.022 2.864-17.873-.031-10.013-4.955-14.103-17.07-9.158-27.083l88.017-177.909c4.935-9.983 17.019-14.083 27.011-9.179z" fill="#e49542"/><path d="m398.152 509.897c-10.003 4.955-22.128.855-27.073-9.148l-56.185-113.576-31.832-64.344c-1.432-2.884-2.102-5.934-2.102-8.952 0-7.438 4.131-14.597 11.249-18.121 10.013-4.955 22.128-.855 27.083 9.148l40.053 80.971 47.964 96.949c4.946 10.003.846 22.128-9.157 27.073z" fill="#e7a561"/><g fill="#e49542"><path d="m228.865 313.887c0 3.008-.68 6.068-2.101 8.942l-31.812 64.303c-14.814-.319-29.628-.773-44.441-1.339l40.012-80.889c4.955-10.003 17.08-14.103 27.083-9.148 7.129 3.523 11.259 10.683 11.259 18.131z"/><path d="m359.346 385.875c-14.814.556-29.638.989-44.452 1.298l-31.832-64.344c-1.432-2.884-2.102-5.934-2.102-8.952 0-7.438 4.131-14.597 11.249-18.121 10.013-4.955 22.128-.855 27.083 9.148z"/><path d="m398.945 509.474c-.258.154-.525.288-.793.422-10.003 4.955-22.128.855-27.083-9.148l-88.007-177.92c-1.432-2.884-2.102-5.934-2.102-8.952 0-7.438 4.131-14.597 11.25-18.121 6.16-3.049 13.135-2.668 18.728.423-6.634 3.647-10.456 10.549-10.456 17.708 0 3.008.68 6.068 2.102 8.942l88.017 177.92c1.895 3.843 4.852 6.81 8.344 8.726z"/></g><path d="m467.192 8.087c-140.795-10.783-281.589-10.783-422.384 0-10.307.79-18.698 8.666-20.041 18.916-13.547 103.389-13.547 206.779 0 310.168 1.343 10.25 9.734 18.126 20.041 18.916 140.795 10.783 281.589 10.783 422.384 0 10.307-.789 18.698-8.666 20.041-18.916 13.547-103.389 13.547-206.778 0-310.168-1.343-10.25-9.734-18.126-20.041-18.916z" fill="#e7a561"/><path d="m49.964 356.464c-1.72-.124-3.441-.247-5.161-.381-10.302-.783-18.697-8.664-20.037-18.914-13.547-103.387-13.547-206.775 0-310.162 1.339-10.25 9.735-18.131 20.037-18.924 1.731-.134 3.451-.268 5.182-.381-3.956 3.492-6.665 8.365-7.397 13.907-14.021 106.983-14.021 213.965 0 320.958.721 5.532 3.431 10.394 7.376 13.897z" fill="#e49542"/><path d="m256 330.106c-66.629 0-134.178-2.487-200.841-7.394-11.433-93.34-11.433-187.913 0-281.251 66.664-4.907 134.212-7.394 200.841-7.394s134.177 2.487 200.841 7.394c11.433 93.34 11.433 187.913 0 281.251-66.664 4.907-134.212 7.394-200.841 7.394z" fill="#5e54ac"/><g fill="#ecf4ff"><path d="m256 101.029c-4.267 0-7.726-3.459-7.726-7.726v-15.453c0-4.267 3.459-7.726 7.726-7.726 4.268 0 7.726 3.459 7.726 7.726v15.453c0 4.267-3.458 7.726-7.726 7.726z"/><path d="m256 251.354c-4.267 0-7.726-3.459-7.726-7.726v-26.844c0-4.267 3.459-7.726 7.726-7.726 4.268 0 7.726 3.459 7.726 7.726v26.844c0 4.266-3.458 7.726-7.726 7.726zm0-50.109c-4.267 0-7.726-3.459-7.726-7.726v-26.844c0-4.267 3.459-7.726 7.726-7.726 4.268 0 7.726 3.459 7.726 7.726v26.844c0 4.267-3.458 7.726-7.726 7.726zm0-50.108c-4.267 0-7.726-3.459-7.726-7.726v-26.844c0-4.267 3.459-7.726 7.726-7.726 4.268 0 7.726 3.459 7.726 7.726v26.844c0 4.267-3.458 7.726-7.726 7.726z"/><path d="m256 300.373c-4.267 0-7.726-3.459-7.726-7.726v-25.755c0-4.267 3.459-7.726 7.726-7.726 4.268 0 7.726 3.459 7.726 7.726v25.755c0 4.266-3.458 7.726-7.726 7.726z"/></g><g fill="#ecf4ff"><path d="m110.106 282.228h-15.453c-4.267 0-7.726-3.459-7.726-7.726s3.459-7.726 7.726-7.726h15.453c4.267 0 7.726 3.459 7.726 7.726s-3.459 7.726-7.726 7.726z"/><path d="m376.317 282.228h-28.523c-4.268 0-7.726-3.459-7.726-7.726s3.459-7.726 7.726-7.726h28.523c4.268 0 7.726 3.459 7.726 7.726s-3.458 7.726-7.726 7.726zm-53.243 0h-28.523c-4.268 0-7.726-3.459-7.726-7.726s3.459-7.726 7.726-7.726h28.523c4.268 0 7.726 3.459 7.726 7.726s-3.458 7.726-7.726 7.726zm-53.242 0h-28.522c-4.267 0-7.726-3.459-7.726-7.726s3.459-7.726 7.726-7.726h28.522c4.268 0 7.726 3.459 7.726 7.726s-3.458 7.726-7.726 7.726zm-53.242 0h-28.523c-4.267 0-7.726-3.459-7.726-7.726s3.459-7.726 7.726-7.726h28.523c4.267 0 7.726 3.459 7.726 7.726s-3.459 7.726-7.726 7.726zm-53.242 0h-28.523c-4.267 0-7.726-3.459-7.726-7.726s3.459-7.726 7.726-7.726h28.523c4.267 0 7.726 3.459 7.726 7.726s-3.459 7.726-7.726 7.726z"/><path d="m416.489 282.228h-15.453c-4.268 0-7.726-3.459-7.726-7.726s3.459-7.726 7.726-7.726h15.453c4.268 0 7.726 3.459 7.726 7.726s-3.458 7.726-7.726 7.726z"/></g><g fill="#ddeafb"><path d="m324.194 51.456c-3.575-2.327-8.362-1.316-10.69 2.26l-7.964 12.234-8.068-12.358c-2.335-3.574-7.12-4.578-10.694-2.245-3.572 2.333-4.578 7.121-2.245 10.693l13.286 20.348-.052 20.955c-.01 4.267 3.441 7.735 7.707 7.745h.019c4.259 0 7.716-3.447 7.726-7.707l.052-20.983 13.183-20.251c2.328-3.576 1.317-8.363-2.26-10.691z"/><path d="m122.427 223.394 11.771-16.709c2.458-3.488 1.622-8.308-1.867-10.766-3.488-2.457-8.308-1.622-10.766 1.867l-8.582 12.183-8.567-12.179c-2.455-3.49-7.275-4.328-10.765-1.874-3.49 2.455-4.329 7.275-1.874 10.765l11.753 16.707-14.05 19.944c-2.457 3.488-1.622 8.308 1.867 10.766 1.353.953 2.905 1.41 4.443 1.41 2.428 0 4.818-1.141 6.323-3.277l10.862-15.418 10.843 15.414c1.505 2.138 3.896 3.281 6.326 3.281 1.536 0 3.088-.457 4.439-1.407 3.49-2.455 4.329-7.275 1.874-10.765z"/></g><path d="m256 255.382c-32.209 0-62.206-20.007-84.465-56.335-21.536-35.146-33.396-81.717-33.396-131.132 0-4.267 3.459-7.726 7.726-7.726s7.726 3.459 7.726 7.726c0 46.605 11.052 90.308 31.12 123.059 19.344 31.569 44.661 48.955 71.289 48.955s51.946-17.386 71.29-48.955c20.067-32.751 31.12-76.453 31.12-123.059 0-4.267 3.459-7.726 7.726-7.726s7.726 3.459 7.726 7.726c0 49.415-11.86 95.986-33.396 131.132-22.26 36.329-52.258 56.335-84.466 56.335z" fill="#ddeafb"/><path d="m408.709 302.198c-1.978 0-3.955-.754-5.464-2.263-3.017-3.017-3.017-7.909 0-10.927l14.507-14.506-14.507-14.506c-3.017-3.017-3.017-7.909 0-10.927 3.018-3.017 7.909-3.017 10.928 0l19.97 19.969c1.449 1.449 2.263 3.414 2.263 5.463s-.814 4.015-2.263 5.463l-19.97 19.969c-1.509 1.51-3.487 2.265-5.464 2.265z" fill="#ecf4ff"/><path d="m236.031 90.46c-1.977 0-3.955-.754-5.463-2.263-3.018-3.017-3.018-7.909 0-10.927l19.969-19.969c1.449-1.449 3.414-2.263 5.463-2.263s4.014.814 5.464 2.263l19.969 19.969c3.017 3.017 3.017 7.909 0 10.927-3.019 3.017-7.91 3.017-10.928 0l-14.505-14.506-14.506 14.506c-1.509 1.509-3.486 2.263-5.463 2.263z" fill="#ecf4ff"/></g></svg>