<svg clip-rule="evenodd" fill-rule="evenodd" height="1.707in" image-rendering="optimizeQuality" shape-rendering="geometricPrecision" text-rendering="geometricPrecision" viewBox="0 0 1707 1707" width="1.707in" xmlns="http://www.w3.org/2000/svg"><g id="Layer_x0020_1"><path d="m1055 1446c-7 0-14-4-17-11h-369c-11 21-43 9-37-14l50-206c6-25 45-16 39 10h265c-7-26 33-36 39-10l50 206c3 13-7 25-20 25z" fill="#5c5c5c"/><path d="m1609 1240h-1512c-53 0-97-44-97-97v-946c0-53 44-97 97-97h1512c54 0 97 44 97 97v946c0 53-43 97-97 97z" fill="#414141"/><path d="m1324 1606h-941c-30 0-54-23-54-53v-27c0-66 54-120 120-120h808c67 0 120 54 120 120v27c0 30-24 53-53 53z" fill="#414141"/><path d="m208 1137h-74c-26 0-26-40 0-40h74c27 0 27 40 0 40z" fill="#8d8d8d"/><path d="m377 1137h-74c-26 0-26-40 0-40h74c27 0 27 40 0 40z" fill="#9a9a9a"/><path d="m547 1137h-74c-27 0-27-40 0-40h74c26 0 26 40 0 40z" fill="#cdcdce"/><path d="m1572 1137h-74c-26 0-26-40 0-40h74c27 0 27 40 0 40z" fill="#848485"/><path d="m40 995h1626v-798c0-31-25-57-57-57h-1512c-31 0-57 26-57 57z" fill="#aeaeae"/><path d="m1609 140h-1512c-31 0-57 26-57 57v798l1606-841c-10-9-23-14-37-14z" fill="#b9b9b9"/><g fill="#6a6a6a"><path d="m996 502c-15 0-25-18-16-31l76-114-76-115c-15-22 19-44 33-22l83 125c5 7 5 16 0 23l-83 125c-4 6-10 9-17 9z"/><path d="m710 502c-6 0-13-3-16-9l-84-125c-4-7-4-16 0-23l84-125c14-22 47 0 33 22l-76 114 76 115c9 13-1 31-17 31z"/><path d="m805 502c-13 0-23-14-18-27l96-251c9-25 46-10 37 14l-96 251c-3 8-11 13-19 13z"/><path d="m1533 593h-1360c-26 0-26-40 0-40h1360c27 0 27 40 0 40z"/><path d="m1533 703h-1360c-26 0-26-40 0-40h1360c27 0 27 40 0 40z"/><path d="m1533 813h-1360c-26 0-26-40 0-40h1360c27 0 27 40 0 40z"/><path d="m1533 924h-1360c-26 0-26-40 0-40h1360c27 0 27 40 0 40z"/></g></g></svg>