<svg id="Layer_1" enable-background="new 0 0 512 512" height="512" viewBox="0 0 512 512" width="512" xmlns="http://www.w3.org/2000/svg"><g><path d="m15.453 199.734h481.095v285.784h-481.095z" fill="#ecf5ff"/><path d="m465.642 199.734h30.905v285.784h-30.905z" fill="#dceafc"/><g><g><path d="m256 109.328c-4.268 0-7.726-3.459-7.726-7.726v-66.118c0-4.268 3.459-7.726 7.726-7.726s7.726 3.459 7.726 7.726v66.118c0 4.267-3.458 7.726-7.726 7.726z" fill="#ecf5ff"/></g><path d="m315.532 46.358h-67.258v-39.147c0-3.983 3.229-7.211 7.211-7.211h60.047c3.983 0 7.211 3.229 7.211 7.211v31.936c0 3.983-3.229 7.211-7.211 7.211z" fill="#db8894"/><path d="m315.532 0h-30.905c3.983 0 7.211 3.229 7.211 7.211v31.936c0 3.983-3.229 7.211-7.211 7.211h30.905c3.983 0 7.211-3.229 7.211-7.211v-31.936c0-3.982-3.229-7.211-7.211-7.211z" fill="#d4717f"/></g><path d="m504.789 215.476h-497.578c-3.983 0-7.211-3.229-7.211-7.211v-39.086c0-3.983 3.229-7.211 7.211-7.211h104.375c3.501 0 6.945-.892 10.006-2.593l130.905-72.725c2.178-1.21 4.826-1.21 7.004 0l130.905 72.725c3.061 1.7 6.505 2.593 10.006 2.593h104.375c3.983 0 7.211 3.229 7.211 7.211v39.086c.002 3.982-3.227 7.211-7.209 7.211z" fill="#bdd8fc"/><g><path d="m504.789 161.967h-30.905c3.983 0 7.211 3.229 7.211 7.211v39.086c0 3.983-3.229 7.211-7.211 7.211h30.905c3.983 0 7.211-3.229 7.211-7.211v-39.086c0-3.982-3.229-7.211-7.211-7.211z" fill="#9dc7fb"/></g><circle cx="256" cy="158.733" fill="#4f6d8f" r="27.464"/><path d="m256 131.27c-5.731 0-11.05 1.757-15.453 4.76 7.25 4.944 12.011 13.267 12.011 22.704s-4.761 17.76-12.011 22.704c4.403 3.002 9.722 4.76 15.453 4.76 15.168 0 27.464-12.296 27.464-27.464 0-15.169-12.296-27.464-27.464-27.464z" fill="#455e7e"/><g><path d="m77.264 215.476h52.932v265.554h-52.932z" fill="#bdd8fc"/><path d="m99.29 215.476h30.905v265.554h-30.905z" fill="#9dc7fb"/><path d="m145.648 215.476h-83.837v20.604c0 5.69 4.612 10.302 10.302 10.302h63.234c5.69 0 10.302-4.612 10.302-10.302v-20.604z" fill="#4f6d8f"/><path d="m114.742 215.476v20.604c0 5.689-4.612 10.302-10.302 10.302h30.905c5.69 0 10.302-4.612 10.302-10.302v-20.604z" fill="#455e7e"/><path d="m135.346 450.124h-63.233c-5.69 0-10.302 4.612-10.302 10.302v20.604h83.837v-20.604c0-5.689-4.612-10.302-10.302-10.302z" fill="#4f6d8f"/><path d="m135.346 450.124h-30.905c5.69 0 10.302 4.612 10.302 10.302v20.604h30.905v-20.604c0-5.689-4.612-10.302-10.302-10.302z" fill="#455e7e"/></g><g><path d="m381.805 215.476h52.932v265.554h-52.932z" fill="#bdd8fc"/><path d="m403.831 215.476h30.905v265.554h-30.905z" fill="#9dc7fb"/><path d="m450.189 215.476h-83.837v20.604c0 5.69 4.612 10.302 10.302 10.302h63.234c5.69 0 10.302-4.612 10.302-10.302v-20.604z" fill="#4f6d8f"/><path d="m419.284 215.476v20.604c0 5.689-4.612 10.302-10.302 10.302h30.905c5.69 0 10.302-4.612 10.302-10.302v-20.604z" fill="#455e7e"/><path d="m439.887 450.124h-63.234c-5.69 0-10.302 4.612-10.302 10.302v20.604h83.837v-20.604c.001-5.689-4.611-10.302-10.301-10.302z" fill="#4f6d8f"/><path d="m439.887 450.124h-30.905c5.69 0 10.302 4.612 10.302 10.302v20.604h30.905v-20.604c0-5.689-4.612-10.302-10.302-10.302z" fill="#455e7e"/></g><path d="m308.568 481.03h-105.136v-133.565c0-5.69 4.612-10.302 10.302-10.302h84.533c5.69 0 10.302 4.612 10.302 10.302v133.565z" fill="#ce9775"/><path d="m298.266 337.163h-30.905c5.689 0 10.302 4.612 10.302 10.302v133.565h30.905v-133.565c0-5.69-4.612-10.302-10.302-10.302z" fill="#c6855b"/><path d="m322.604 292.885h-133.209c-3.983 0-7.211-3.229-7.211-7.211v-18.709c0-3.983 3.229-7.211 7.211-7.211h133.209c3.983 0 7.211 3.229 7.211 7.211v18.709c.001 3.983-3.228 7.211-7.211 7.211z" fill="#db8894"/><path d="m322.605 259.754h-30.905c3.983 0 7.211 3.229 7.211 7.211v18.709c0 3.983-3.229 7.211-7.211 7.211h30.905c3.983 0 7.211-3.228 7.211-7.211v-18.709c0-3.983-3.229-7.211-7.211-7.211z" fill="#d4717f"/><path d="m10.302 481.03h491.396c5.69 0 10.302 4.622 10.302 10.323v10.323c0 5.701-4.612 10.323-10.302 10.323h-491.396c-5.69.001-10.302-4.621-10.302-10.322v-10.323c0-5.702 4.612-10.324 10.302-10.324z" fill="#bee49d"/><path d="m501.698 481.03h-30.905c5.69 0 10.302 4.622 10.302 10.323v10.323c0 5.701-4.612 10.323-10.302 10.323h30.905c5.69 0 10.302-4.622 10.302-10.323v-10.323c0-5.701-4.612-10.323-10.302-10.323z" fill="#a3d8a4"/></g></svg>