<svg id="Layer_1" enable-background="new 0 0 512 512" height="512" viewBox="0 0 512 512" width="512" xmlns="http://www.w3.org/2000/svg"><path d="m55.686 73.375h-18.186c-4.142 0-7.5-3.357-7.5-7.5s3.358-7.5 7.5-7.5h18.186c4.142 0 7.5 3.357 7.5 7.5s-3.358 7.5-7.5 7.5z" fill="#617881"/><path d="m55.686 131.75h-18.186c-4.142 0-7.5-3.357-7.5-7.5s3.358-7.5 7.5-7.5h18.186c4.142 0 7.5 3.357 7.5 7.5s-3.358 7.5-7.5 7.5z" fill="#617881"/><path d="m55.686 248.5h-18.186c-4.142 0-7.5-3.357-7.5-7.5s3.358-7.5 7.5-7.5h18.186c4.142 0 7.5 3.357 7.5 7.5s-3.358 7.5-7.5 7.5z" fill="#617881"/><path d="m55.686 306.875h-18.186c-4.142 0-7.5-3.357-7.5-7.5s3.358-7.5 7.5-7.5h18.186c4.142 0 7.5 3.357 7.5 7.5s-3.358 7.5-7.5 7.5z" fill="#617881"/><path d="m55.686 365.25h-18.186c-4.142 0-7.5-3.357-7.5-7.5s3.358-7.5 7.5-7.5h18.186c4.142 0 7.5 3.357 7.5 7.5s-3.358 7.5-7.5 7.5z" fill="#617881"/><path d="m55.686 423.625h-18.186c-4.142 0-7.5-3.357-7.5-7.5s3.358-7.5 7.5-7.5h18.186c4.142 0 7.5 3.357 7.5 7.5s-3.358 7.5-7.5 7.5z" fill="#617881"/><path d="m54.686 73.375h-17.186c-4.142 0-7.5-3.357-7.5-7.5s3.358-7.5 7.5-7.5h17.186c4.142 0 7.5 3.357 7.5 7.5s-3.358 7.5-7.5 7.5z" fill="#617881"/><path d="m54.686 131.75h-17.186c-4.142 0-7.5-3.357-7.5-7.5s3.358-7.5 7.5-7.5h17.186c4.142 0 7.5 3.357 7.5 7.5s-3.358 7.5-7.5 7.5z" fill="#617881"/><path d="m55.686 190.125h-18.186c-4.142 0-7.5-3.357-7.5-7.5s3.358-7.5 7.5-7.5h18.186c4.142 0 7.5 3.357 7.5 7.5s-3.358 7.5-7.5 7.5zm51.024-7.5c0-4.143-3.358-7.5-7.5-7.5h-16.678c-4.142 0-7.5 3.357-7.5 7.5s3.358 7.5 7.5 7.5h16.678c4.143 0 7.5-3.357 7.5-7.5zm45.033 0c0-4.143-3.358-7.5-7.5-7.5h-16.678c-4.142 0-7.5 3.357-7.5 7.5s3.358 7.5 7.5 7.5h16.678c4.142 0 7.5-3.357 7.5-7.5zm45.032 0c0-4.143-3.358-7.5-7.5-7.5h-16.678c-4.142 0-7.5 3.357-7.5 7.5s3.358 7.5 7.5 7.5h16.678c4.142 0 7.5-3.357 7.5-7.5zm45.032 0c0-4.143-3.358-7.5-7.5-7.5h-16.679c-4.142 0-7.5 3.357-7.5 7.5s3.358 7.5 7.5 7.5h16.679c4.142 0 7.5-3.357 7.5-7.5zm45.032 0c0-4.143-3.357-7.5-7.5-7.5h-16.678c-4.143 0-7.5 3.357-7.5 7.5s3.357 7.5 7.5 7.5h16.678c4.142 0 7.5-3.357 7.5-7.5zm45.032 0c0-4.143-3.357-7.5-7.5-7.5h-16.678c-4.143 0-7.5 3.357-7.5 7.5s3.357 7.5 7.5 7.5h16.678c4.143 0 7.5-3.357 7.5-7.5zm45.032 0c0-4.143-3.357-7.5-7.5-7.5h-16.679c-4.143 0-7.5 3.357-7.5 7.5s3.357 7.5 7.5 7.5h16.679c4.143 0 7.5-3.357 7.5-7.5zm45.033 0c0-4.143-3.357-7.5-7.5-7.5h-16.679c-4.143 0-7.5 3.357-7.5 7.5s3.357 7.5 7.5 7.5h16.679c4.142 0 7.5-3.357 7.5-7.5zm45.032 0c0-4.143-3.357-7.5-7.5-7.5h-16.679c-4.143 0-7.5 3.357-7.5 7.5s3.357 7.5 7.5 7.5h16.679c4.142 0 7.5-3.357 7.5-7.5zm45.032 0c0-4.143-3.357-7.5-7.5-7.5h-16.679c-4.143 0-7.5 3.357-7.5 7.5s3.357 7.5 7.5 7.5h16.679c4.143 0 7.5-3.357 7.5-7.5z" fill="#f1f4f6"/><g fill="#617881"><path d="m54.686 248.5h-17.186c-4.142 0-7.5-3.357-7.5-7.5s3.358-7.5 7.5-7.5h17.186c4.142 0 7.5 3.357 7.5 7.5s-3.358 7.5-7.5 7.5z"/><path d="m54.686 306.875h-17.186c-4.142 0-7.5-3.357-7.5-7.5s3.358-7.5 7.5-7.5h17.186c4.142 0 7.5 3.357 7.5 7.5s-3.358 7.5-7.5 7.5z"/><path d="m54.686 365.25h-17.186c-4.142 0-7.5-3.357-7.5-7.5s3.358-7.5 7.5-7.5h17.186c4.142 0 7.5 3.357 7.5 7.5s-3.358 7.5-7.5 7.5z"/><path d="m54.686 423.625h-17.186c-4.142 0-7.5-3.357-7.5-7.5s3.358-7.5 7.5-7.5h17.186c4.142 0 7.5 3.357 7.5 7.5s-3.358 7.5-7.5 7.5z"/><path d="m387.75 482c-4.143 0-7.5-3.357-7.5-7.5v-18.186c0-4.143 3.357-7.5 7.5-7.5s7.5 3.357 7.5 7.5v18.186c0 4.143-3.357 7.5-7.5 7.5z"/><path d="m329.375 482c-4.143 0-7.5-3.357-7.5-7.5v-18.186c0-4.143 3.357-7.5 7.5-7.5s7.5 3.357 7.5 7.5v18.186c0 4.143-3.357 7.5-7.5 7.5z"/><path d="m271 482c-4.143 0-7.5-3.357-7.5-7.5v-18.186c0-4.143 3.357-7.5 7.5-7.5s7.5 3.357 7.5 7.5v18.186c0 4.143-3.357 7.5-7.5 7.5z"/><path d="m212.625 482c-4.142 0-7.5-3.357-7.5-7.5v-18.186c0-4.143 3.358-7.5 7.5-7.5s7.5 3.357 7.5 7.5v18.186c0 4.143-3.358 7.5-7.5 7.5z"/><path d="m154.25 482c-4.142 0-7.5-3.357-7.5-7.5v-18.186c0-4.143 3.358-7.5 7.5-7.5s7.5 3.357 7.5 7.5v18.186c0 4.143-3.358 7.5-7.5 7.5z"/><path d="m387.75 482c-4.143 0-7.5-3.357-7.5-7.5v-17.186c0-4.143 3.357-7.5 7.5-7.5s7.5 3.357 7.5 7.5v17.186c0 4.143-3.357 7.5-7.5 7.5z"/><path d="m329.375 482c-4.143 0-7.5-3.357-7.5-7.5v-17.186c0-4.143 3.357-7.5 7.5-7.5s7.5 3.357 7.5 7.5v17.186c0 4.143-3.357 7.5-7.5 7.5z"/><path d="m271 482c-4.143 0-7.5-3.357-7.5-7.5v-17.186c0-4.143 3.357-7.5 7.5-7.5s7.5 3.357 7.5 7.5v17.186c0 4.143-3.357 7.5-7.5 7.5z"/><path d="m212.625 482c-4.142 0-7.5-3.357-7.5-7.5v-17.186c0-4.143 3.358-7.5 7.5-7.5s7.5 3.357 7.5 7.5v17.186c0 4.143-3.358 7.5-7.5 7.5z"/><path d="m154.25 482c-4.142 0-7.5-3.357-7.5-7.5v-17.186c0-4.143 3.358-7.5 7.5-7.5s7.5 3.357 7.5 7.5v17.186c0 4.143-3.358 7.5-7.5 7.5z"/><path d="m95.889 482.001c-.346 0-.695-.024-1.047-.073-4.103-.573-6.963-4.363-6.39-8.466.105-.754 10.785-76.365 32.208-160.825 1.019-4.015 5.099-6.446 9.114-5.426 4.015 1.019 6.444 5.099 5.426 9.113-21.224 83.673-31.788 158.468-31.893 159.214-.523 3.75-3.736 6.463-7.418 6.463z"/><path d="m136.004 291.652c-.668 0-1.348-.09-2.022-.278-3.989-1.115-6.319-5.253-5.205-9.242 35.423-126.749 77.261-198.245 124.349-212.501 3.963-1.199 8.152 1.041 9.352 5.006 1.2 3.964-1.041 8.151-5.006 9.352-41.269 12.493-80.775 82.406-114.25 202.181-.925 3.313-3.937 5.482-7.218 5.482z"/><path d="m405.996 291.642c-3.28 0-6.293-2.169-7.22-5.483-33.517-119.923-73.075-189.846-114.396-202.214-3.969-1.188-6.223-5.368-5.035-9.336s5.364-6.218 9.336-5.035c47.167 14.117 89.069 85.628 124.543 212.547 1.114 3.989-1.216 8.127-5.205 9.242-.675.189-1.355.279-2.023.279z"/><path d="m446.11 482.001c-3.681 0-6.893-2.712-7.418-6.462-.104-.746-10.689-75.586-31.892-159.216-1.019-4.015 1.411-8.095 5.427-9.112 4.014-1.019 8.096 1.411 9.112 5.427 21.413 84.459 32.103 160.069 32.208 160.823.574 4.102-2.286 7.893-6.389 8.467-.35.049-.701.073-1.048.073z"/></g><path d="m441.091 95.489h-3.989c-8.817 0-15.991 7.173-15.991 15.99v32.391c0 .547-.444.991-.99.991h-3.99c-4.143 0-7.5 3.357-7.5 7.5s3.357 7.5 7.5 7.5h3.99c8.817 0 15.99-7.174 15.99-15.991v-32.391c0-.546.444-.99.991-.99h3.989c4.143 0 7.5-3.357 7.5-7.5s-3.358-7.5-7.5-7.5z" fill="#df75a5"/><path d="m478.944 141.142 5.916-5.916c2.929-2.93 2.929-7.678 0-10.607-2.93-2.928-7.678-2.928-10.607 0l-5.916 5.916-5.916-5.916c-2.93-2.928-7.678-2.928-10.607 0-2.929 2.93-2.929 7.678 0 10.607l5.916 5.916-5.916 5.916c-2.929 2.93-2.929 7.678 0 10.607 1.465 1.464 3.385 2.196 5.304 2.196s3.839-.732 5.304-2.196l5.916-5.916 5.916 5.916c1.465 1.464 3.385 2.196 5.304 2.196s3.839-.732 5.304-2.196c2.929-2.93 2.929-7.678 0-10.607z" fill="#df75a5"/><path d="m504.5 467h-459.5v-459.5c0-4.143-3.358-7.5-7.5-7.5h-30c-4.142 0-7.5 3.357-7.5 7.5v497c0 4.143 3.358 7.5 7.5 7.5h497c4.143 0 7.5-3.357 7.5-7.5v-30c0-4.143-3.357-7.5-7.5-7.5z" fill="#b4d0d5"/><path d="m504.5 467h-32.945c-2.438 14.196-14.798 25-29.69 25h-441.865v12.5c0 4.143 3.358 7.5 7.5 7.5h497c4.143 0 7.5-3.357 7.5-7.5v-30c0-4.143-3.357-7.5-7.5-7.5z" fill="#9bb9c1"/><path d="m271 51.259c-12.789 0-23.194 10.405-23.194 23.195 0 12.789 10.405 23.194 23.194 23.194s23.194-10.405 23.194-23.194c0-12.79-10.405-23.195-23.194-23.195z" fill="#df75a5"/><path d="m409.814 276.181c-12.789 0-23.194 10.405-23.194 23.194s10.405 23.194 23.194 23.194c12.79 0 23.195-10.405 23.195-23.194s-10.405-23.194-23.195-23.194z" fill="#8eaadf"/><circle cx="132.185" cy="299.375" fill="#f6e781" r="23.194"/></svg>