<svg id="Capa_1" enable-background="new 0 0 512 512" height="512" viewBox="0 0 512 512" width="512" xmlns="http://www.w3.org/2000/svg"><g><path d="m256 361h-15v90h15 15v-90z" fill="#d5e8fe"/><path d="m256 361h15v90h-15z" fill="#b5dbff"/><g><path d="m256 46h-256v330h256 256v-330z" fill="#3e82c6"/><path d="m256 46h256v330h-256z" fill="#415ba5"/><path d="m256 436h-105v30h105 105v-30z" fill="#d5e8fe"/><path d="m256 436h105v30h-105z" fill="#b5dbff"/></g><path d="m482 76h-226-226v60l30 15-30 15v90l30 15-30 15v60h226 226v-60l-30-15 30-15v-90l-30-15 30-15z" fill="#4ad0ff"/><path d="m482 286-30-15 30-15v-90l-30-15 30-15v-60h-226v270h226z" fill="#449ff2"/><path d="m331 256h30v30h-30z" fill="#76e2f8"/><path d="m151 136h30v30h-30z" fill="#9bfcff"/><path d="m391 256h91v30h-91z" fill="#76e2f8"/><path d="m30 136h91v30h-91z" fill="#9bfcff"/><g fill="#9bfcff"><path d="m271 226v-30h-15-15v30h15z"/><path d="m256 136h-39.272l-30 60h-126.728v30h145.272l30-60h20.728 226v-30z"/><path d="m276.728 256h-20.728-226v30h226 39.272l30-60h126.728v-30h-145.272z"/></g><g fill="#76e2f8"><path d="m256 196h15v30h-15z"/><path d="m256 136h226v30h-226z"/><path d="m325.272 226h126.728v-30h-145.272l-30 60h-20.728v30h39.272z"/></g></g></svg>