<svg height="512pt" viewBox="0 -56 512 511" width="512pt" xmlns="http://www.w3.org/2000/svg"><path d="m32.332031 63.992188h-23.882812c-4.667969 0-8.449219 3.78125-8.449219 8.449218v309.015625c0 4.664063 3.78125 8.445313 8.449219 8.445313h226.511719c1.1875 5.191406 5.824218 9.070312 11.375 9.070312h21.007812c5.550781 0 10.191406-3.875 11.375-9.070312h224.832031c4.667969 0 8.449219-3.78125 8.449219-8.445313v-309.015625c0-4.667968-3.78125-8.449218-8.449219-8.449218h-23.882812v297.605468c0 3.199219-3.015625 5.574219-6.214844 4.898438-19.820313-4.191406-40.289063-11.964844-66.949219-25.703125-55.078125-28.378907-101.335937-13.140625-127.480468 1.488281-1.007813.621094-14.050782 7.738281-23.023438 16.238281-5.339844-5.09375-15.9375-12.332031-21.34375-15.28125-25.8125-14.898437-72.878906-31.441406-129.15625-2.445312-26.664062 13.738281-47.132812 21.511719-66.953125 25.703125-3.199219.675781-6.214844-1.699219-6.214844-4.898438 0-11.925781 0-283.960937 0-297.605468" fill="#935d38"/><path d="m30.90625 63.992188h-22.457031c-4.667969 0-8.449219 3.78125-8.449219 8.449218v309.015625c0 4.664063 3.78125 8.445313 8.449219 8.445313h22.457031zm0 0" fill="#7f4d2a"/><path d="m476.546875 343.644531c-19.824219-4.285156-43.382813-12.246093-70.042969-26.304687-86.003906-45.351563-151.351562 18.585937-151.351562 18.585937l.847656 27.746094s64.5-62.042969 150.503906-17.726563c26.660156 13.738282 50.21875 21.511719 70.042969 25.703126 3.195313.675781 6.210937-1.699219 6.210937-4.898438v-28.117188c0 3.273438-3.015624 5.703126-6.210937 5.011719zm0 0" fill="#e0d9d5"/><path d="m287.582031 314.359375c-20.445312 9.84375-32.429687 21.558594-32.429687 21.558594l.847656 27.746093s11.628906-11.175781 31.582031-20.65625zm0 0" fill="#cec8c6"/><path d="m105.496094 317.339844c-26.660156 14.058594-50.21875 22.015625-70.042969 26.304687-3.195313.691407-6.210937-1.738281-6.210937-5.011719v28.117188c0 3.199219 3.015624 5.574219 6.210937 4.898438 19.824219-4.191407 43.382813-11.964844 70.042969-25.703126 86.003906-44.3125 150.503906 17.726563 150.503906 17.726563v-28.191406s-64.5-63.492188-150.503906-18.140625zm0 0" fill="#e0d9d5"/><path d="m60.148438 336.859375c-8.765626 2.902344-17.015626 5.125-24.695313 6.785156-3.195313.691407-6.210937-1.742187-6.210937-5.011719v28.117188c0 3.195312 3.015624 5.574219 6.210937 4.898438 7.679687-1.625 15.929687-3.792969 24.695313-6.632813zm0 0" fill="#cec8c6"/><path d="m478.671875 43.585938c-20.253906-4.171876-44.546875-12.1875-72.167969-26.753907-86.003906-45.351562-150.964844 18.585938-150.964844 18.585938l.460938 300.0625s64.5-63.492188 150.503906-18.140625c26.660156 14.0625 50.21875 22.019531 70.042969 26.304687 3.195313.691407 6.210937-1.738281 6.210937-5.011719v-290.035156c0-2.433594-1.703124-4.523437-4.085937-5.011718zm0 0" fill="#edebed"/><g fill="#e0d9d5"><path d="m287.582031 13.96875c-20.222656 9.820312-32.042969 21.445312-32.042969 21.445312l.460938 300.066407s11.628906-11.441407 31.582031-21.140625zm0 0"/><path d="m438.328125 102.605469c-11.6875-4.429688-23.609375-9.835938-35.429687-16.070313-46.289063-24.410156-85.90625-15.289062-110.988282-3.339844-3.851562 1.835938-8.464844.203126-10.300781-3.652343-1.835937-3.851563-.199219-8.460938 3.652344-10.296875 28.277343-13.472656 72.890625-23.777344 124.84375 3.621094 11.261719 5.9375 22.601562 11.085937 33.699219 15.289062 3.988281 1.511719 6 5.972656 4.484374 9.964844-1.511718 3.988281-5.972656 5.996094-9.960937 4.484375zm0 0"/><path d="m438.328125 140.789062c-11.6875-4.429687-23.609375-9.835937-35.429687-16.070312-46.289063-24.410156-85.90625-15.289062-110.988282-3.339844-3.851562 1.835938-8.464844.199219-10.300781-3.652344-1.835937-3.851562-.199219-8.460937 3.652344-10.296874 28.277343-13.472657 72.886719-23.777344 124.84375 3.617187 11.261719 5.941406 22.601562 11.085937 33.699219 15.292969 3.988281 1.511718 6 5.972656 4.484374 9.964844-1.511718 3.988281-5.972656 5.996093-9.960937 4.484374zm0 0"/><path d="m438.328125 178.972656c-11.6875-4.429687-23.609375-9.835937-35.429687-16.070312-46.289063-24.410156-85.90625-15.289063-110.988282-3.339844-3.851562 1.832031-8.464844.203125-10.300781-3.652344-1.835937-3.851562-.199219-8.460937 3.652344-10.296875 28.277343-13.472656 72.886719-23.777343 124.84375 3.621094 11.261719 5.9375 22.601562 11.082031 33.699219 15.289063 3.988281 1.511718 6 5.972656 4.484374 9.964843-1.511718 3.988281-5.972656 5.996094-9.960937 4.484375zm0 0"/><path d="m438.328125 217.15625c-11.6875-4.429688-23.609375-9.835938-35.429687-16.070312-46.289063-24.410157-85.90625-15.289063-110.988282-3.339844-3.851562 1.835937-8.464844.199218-10.300781-3.652344s-.199219-8.464844 3.652344-10.296875c28.277343-13.472656 72.890625-23.777344 124.84375 3.617187 11.265625 5.941407 22.601562 11.085938 33.699219 15.292969 3.988281 1.511719 6 5.972657 4.484374 9.964844-1.511718 3.988281-5.972656 5.996094-9.960937 4.484375zm0 0"/><path d="m438.328125 255.339844c-11.683594-4.429688-23.605469-9.835938-35.429687-16.070313-46.289063-24.414062-85.90625-15.289062-110.988282-3.339843-3.851562 1.832031-8.464844.199218-10.300781-3.652344-1.835937-3.851563-.199219-8.464844 3.652344-10.300782 28.277343-13.46875 72.890625-23.777343 124.84375 3.621094 11.265625 5.941406 22.605469 11.085938 33.699219 15.292969 3.988281 1.511719 6 5.972656 4.484374 9.960937-1.507812 3.984376-5.964843 6-9.960937 4.488282zm0 0"/><path d="m438.328125 293.523438c-11.691406-4.433594-23.609375-9.839844-35.429687-16.074219-46.289063-24.410157-85.90625-15.289063-110.988282-3.335938-3.851562 1.832031-8.464844.199219-10.296875-3.652343-1.835937-3.855469-.203125-8.464844 3.652344-10.300782 28.273437-13.46875 72.886719-23.777344 124.839844 3.621094 11.261719 5.9375 22.601562 11.082031 33.699219 15.289062 3.992187 1.515626 6 5.976563 4.488281 9.964844-1.515625 3.988282-5.976563 6-9.964844 4.488282zm0 0"/></g><path d="m33.328125 43.585938c20.253906-4.171876 44.546875-12.1875 72.167969-26.753907 86.003906-45.351562 150.503906 18.140625 150.503906 18.140625v300.507813s-64.5-63.492188-150.503906-18.140625c-26.660156 14.058594-50.21875 22.015625-70.042969 26.304687-3.195313.691407-6.210937-1.738281-6.210937-5.011719v-290.035156c0-2.433594 1.703124-4.523437 4.085937-5.011718zm0 0" fill="#edebed"/><path d="m60.148438 36.34375c-9.578126 3.175781-18.542969 5.535156-26.820313 7.242188-2.382813.488281-4.085937 2.578124-4.085937 5.011718v290.035156c0 3.273438 3.015624 5.703126 6.210937 5.011719 7.679687-1.660156 15.929687-3.882812 24.695313-6.785156zm0 0" fill="#e0d9d5"/><path d="m65.386719 98.121094c-1.511719-3.992188.496093-8.453125 4.488281-9.964844 11.097656-4.207031 22.4375-9.351562 33.699219-15.292969 51.953125-27.398437 96.566406-17.089843 124.839843-3.617187 3.855469 1.835937 5.488282 6.445312 3.652344 10.296875-1.832031 3.851562-6.445312 5.488281-10.296875 3.652343-25.085937-11.949218-64.699219-21.070312-110.988281 3.339844-11.820312 6.234375-23.742188 11.640625-35.429688 16.070313-3.988281 1.511719-8.449218-.492188-9.964843-4.484375zm0 0" fill="#e0d9d5"/><path d="m65.386719 136.300781c-1.511719-3.988281.496093-8.449219 4.488281-9.960937 11.097656-4.207032 22.4375-9.351563 33.699219-15.292969 51.953125-27.394531 96.566406-17.089844 124.839843-3.621094 3.855469 1.835938 5.488282 6.449219 3.652344 10.300781-1.832031 3.851563-6.445312 5.488282-10.296875 3.652344-25.085937-11.949218-64.699219-21.070312-110.988281 3.339844-11.820312 6.230469-23.742188 11.640625-35.429688 16.070312-3.988281 1.511719-8.449218-.492187-9.964843-4.488281zm0 0" fill="#e0d9d5"/><path d="m65.386719 174.488281c-1.511719-3.992187.496093-8.453125 4.488281-9.964843 11.097656-4.207032 22.4375-9.351563 33.699219-15.292969 51.953125-27.398438 96.566406-17.089844 124.839843-3.621094 3.855469 1.835937 5.488282 6.449219 3.652344 10.300781-1.832031 3.851563-6.445312 5.488282-10.296875 3.652344-25.085937-11.949219-64.699219-21.070312-110.988281 3.339844-11.820312 6.230468-23.742188 11.640625-35.429688 16.070312-3.988281 1.511719-8.449218-.496094-9.964843-4.484375zm0 0" fill="#e0d9d5"/><path d="m65.386719 212.667969c-1.511719-3.988281.496093-8.449219 4.488281-9.960938 11.097656-4.207031 22.4375-9.351562 33.699219-15.292969 51.953125-27.398437 96.566406-17.089843 124.839843-3.621093 3.855469 1.835937 5.488282 6.449219 3.652344 10.300781-1.832031 3.851562-6.445312 5.488281-10.296875 3.652344-25.085937-11.953125-64.703125-21.070313-110.988281 3.335937-11.820312 6.234375-23.742188 11.644531-35.429688 16.074219-3.988281 1.511719-8.449218-.496094-9.964843-4.488281zm0 0" fill="#e0d9d5"/><path d="m65.386719 250.851562c-1.511719-3.988281.496093-8.449218 4.488281-9.964843 11.09375-4.203125 22.433594-9.347657 33.699219-15.289063 51.953125-27.398437 96.566406-17.089844 124.839843-3.621094 3.855469 1.835938 5.488282 6.445313 3.652344 10.300782-1.832031 3.851562-6.445312 5.488281-10.296875 3.652344-25.085937-11.953126-64.699219-21.074219-110.988281 3.335937-11.824219 6.238281-23.746094 11.644531-35.429688 16.070313-3.992187 1.515624-8.449218-.496094-9.964843-4.484376zm0 0" fill="#e0d9d5"/><path d="m65.390625 289.035156c-1.515625-3.992187.496094-8.453125 4.484375-9.964844 11.097656-4.207031 22.4375-9.351562 33.699219-15.289062 51.957031-27.398438 96.566406-17.089844 124.84375-3.621094 3.851562 1.835938 5.488281 6.445313 3.652343 10.296875-1.835937 3.855469-6.449218 5.492188-10.300781 3.652344-25.082031-11.949219-64.699219-21.070313-110.988281 3.339844-11.820312 6.234375-23.738281 11.640625-35.429688 16.070312-3.988281 1.515625-8.449218-.492187-9.960937-4.484375zm0 0" fill="#e0d9d5"/><path d="m262.382812 358.34375c-3.78125 2.898438-9.023437 2.871094-12.804687-.027344-3.59375-2.753906-8.625-6.292968-14.921875-9.925781v38.902344c0 6.453125 5.230469 11.679687 11.679688 11.679687h21.007812c6.449219 0 11.679688-5.226562 11.679688-11.679687v-39.859375c-7.109376 3.976562-12.734376 7.910156-16.640626 10.910156zm0 0" fill="#7f4d2a"/><path d="m265.398438 387.292969v-31.191407c-1.09375.789063-2.105469 1.542969-3.015626 2.242188-3.78125 2.898438-9.023437 2.867188-12.804687-.03125-3.59375-2.753906-8.625-6.289062-14.921875-9.921875v38.902344c0 6.449219 5.230469 11.679687 11.679688 11.679687h21.007812c1.738281 0 3.382812-.390625 4.867188-1.074218-4.015626-1.84375-6.8125-5.894532-6.8125-10.605469zm0 0" fill="#724322"/></svg>