<svg id="Layer_1" enable-background="new 0 0 512 512" height="512" viewBox="0 0 512 512" width="512" xmlns="http://www.w3.org/2000/svg"><g><path d="m400.6 512h-385.6c-8.284 0-15-6.716-15-15v-32.133c0-61.913 50.129-111.4 111.4-111.4 8.284 0 15 6.716 15 15v46.56l78.934-13.156c1.633-.272 3.299-.272 4.932 0l78.935 13.156v-46.56c0-8.284 6.716-15 15-15 61.426 0 111.399 49.966 111.399 111.384v32.149c0 8.284-6.716 15-15 15z" fill="#f0f0f0"/><path d="m400.6 512c8.284 0 15-6.716 15-15v-32.149c0-61.417-49.974-111.384-111.399-111.384-8.284 0-15 6.716-15 15v46.56l-78.935-13.156c-.816-.136-1.641-.204-2.466-.204v110.333z" fill="#e6e6e6"/><path d="m304.2 353.467h-192.8c-8.284 0-15 6.716-15 15v64.267c0 4.409 1.94 8.595 5.305 11.445 5.017 4.251 10.54 3.62 12.161 3.351l93.934-15.656 93.934 15.656c1.624.27 7.145.9 12.161-3.351 3.364-2.85 5.305-7.036 5.305-11.445v-64.267c0-8.284-6.716-15-15-15z" fill="#fafafa"/><path d="m304.2 353.467h-96.4v78.407l93.934 15.656c1.624.27 7.145.9 12.161-3.351 3.364-2.85 5.305-7.036 5.305-11.445v-64.267c0-8.284-6.716-15-15-15z" fill="#f0f0f0"/><path d="m385.6 0h-34.267l-158.533 211.88v92.32c0 8.284 6.716 15 15 15h289.2c8.284 0 15-6.716 15-15v-60.188z" fill="#8bb9ff"/><path d="m512 15c0-8.284-6.716-15-15-15h-111.4v63.2c0 3.978 1.581 7.794 4.394 10.607l27.74 27.74v41.986c0 3.978 1.58 7.793 4.394 10.606l89.872 89.874z" fill="#00b9a0"/><path d="m207.8 0c-8.284 0-15 6.716-15 15v196.88l154.14-154.14c2.813-2.813 4.394-6.628 4.394-10.606v-47.134z" fill="#00b9a0"/><path d="m111.4 238.867h-24.1c-30.75 0-55.166-24.912-55.166-55.167 0-30.348 24.52-55.167 55.166-55.167h24.1c8.284 0 15 6.716 15 15v80.333c0 8.285-6.715 15.001-15 15.001z" fill="#9c3832"/><path d="m328.3 238.867h-24.1c-8.284 0-15-6.716-15-15v-80.333c0-8.284 6.716-15 15-15h24.1c30.751 0 55.167 24.912 55.167 55.167 0 30.342-24.513 55.166-55.167 55.166z" fill="#64231e"/><path d="m207.8 431.667c-25.989 0-47.133-21.144-47.133-47.133v-80.334c0-8.284 6.716-15 15-15h64.267c8.284 0 15 6.716 15 15v80.333c0 25.989-21.145 47.134-47.134 47.134z" fill="#9c3832"/><path d="m304.2 158.533h-40.167c-22.832 0-43.189-10.795-56.234-27.548-13.045 16.754-33.402 27.548-56.232 27.548h-40.167c-8.284 0-15-6.716-15-15v-32.133c0-61.91 50.126-111.4 111.4-111.4 61.172 0 111.4 49.386 111.4 111.4v32.133c0 8.284-6.716 15-15 15z" fill="#2d2850"/><path d="m207.8 0c61.172 0 111.4 49.386 111.4 111.4v32.133c0 8.284-6.716 15-15 15h-40.167c-22.832 0-43.189-10.795-56.234-27.548z" fill="#1e0028"/><path d="m239.934 289.2h-32.134v142.466c25.989 0 47.134-21.144 47.134-47.133v-80.333c0-8.284-6.716-15-15-15z" fill="#64231e"/><path d="m304.2 128.533h-40.167c-31.057 0-56.233-25.177-56.233-56.233 0 31.057-25.177 56.233-56.233 56.233h-40.167c-8.284 0-15 6.716-15 15v112.467c0 35.358 28.775 63.2 63.199 63.2h96.401c34.44 0 63.2-27.858 63.2-63.2v-112.467c0-8.284-6.716-15-15-15z" fill="#c44e44"/><path d="m256 319.2c34.44 0 63.2-27.858 63.2-63.2v-112.467c0-8.284-6.716-15-15-15h-40.167c-31.057 0-56.233-25.177-56.233-56.233v246.9z" fill="#9c3832"/></g></svg>