<svg id="flat" height="512" viewBox="0 0 512 512" width="512" xmlns="http://www.w3.org/2000/svg"><path d="m408 320h64v104h-64z" fill="#4367e0" transform="matrix(-1 0 0 -1 880 744)"/><path d="m344 256h64v168h-64z" fill="#4976f2" transform="matrix(-1 0 0 -1 752 680)"/><path d="m280 176h64v248h-64z" fill="#548aff" transform="matrix(-1 0 0 -1 624 600)"/><path d="m152 80h96v352h-96z" fill="#ffc431"/><path d="m120 440 32 24v8h-63.77l-.02-24z" fill="#c5dafa"/><path d="m24.21 448-.151-184h95.941v176l-32 8-16-144-16 136-32 8z" fill="#718799"/><path d="m24 264h.05931l-.05931-72.40206a39.59794 39.59794 0 0 1 39.59794-39.59794h48.40206a38.62739 38.62739 0 0 1 27.31368 11.3137l12.68632 12.6863v48l-32-32v72z" fill="#548aff"/><path d="m96 128v36a12 12 0 0 1 -24 0v-36z" fill="#ffceb6"/><path d="m96 128v32h-4a11.99677 11.99677 0 0 1 -12-12v-20z" fill="#ffbfa1"/><path d="m88 152a16 16 0 0 1 -16-16v-8l8-8h24v16a16 16 0 0 1 -16 16z" fill="#ffceb6"/><path d="m104 120 4.68629-4.6863a11.3137 11.3137 0 0 0 3.31371-8 11.31369 11.31369 0 0 0 -11.3137-11.3137h-12.6863a16 16 0 0 0 -16 16v16l8-8z" fill="#c47220"/><path d="m44 211.02944a8.00017 8.00017 0 0 1 8.00017 8.00017v17.94078a8.00018 8.00018 0 0 1 -8.00017 8.00017 8.00017 8.00017 0 0 1 -8.00017-8.00017v-17.94078a8.00017 8.00017 0 0 1 8.00017-8.00017z" fill="#4976f2" transform="matrix(.707 -.707 .707 .707 -148.333 97.892)"/><path d="m74 187.85786a8.00017 8.00017 0 0 1 8.00017 8.00017v12.28397a8.00018 8.00018 0 0 1 -8.00017 8.00014 8.00017 8.00017 0 0 1 -8.00017-8.00017v-12.28397a8.00017 8.00017 0 0 1 8.00017-8.00014z" fill="#4976f2" transform="matrix(.707 -.707 .707 .707 -121.161 111.49)"/><path d="m84 212 28 28h40l14.34315-14.34315a5.65684 5.65684 0 0 1 4-1.65685 5.65685 5.65685 0 0 1 5.65685 5.65685v10.34315h24v16a24 24 0 0 1 -24 24h-63.43146a40 40 0 0 1 -28.28427-11.71573l-28.28427-28.28427z" fill="#ffceb6"/><path d="m56 440 32 24v8h-63.77l-.02-24z" fill="#e0edff"/><circle cx="200" cy="112" fill="#ffd873" r="8"/><g fill="#ffa100"><path d="m224 136h24v16h-24z"/><path d="m224 168h24v16h-24z"/><path d="m224 200h24v16h-24z"/><path d="m224 232h24v16h-24z"/><path d="m224 264h24v16h-24z"/><path d="m224 296h24v16h-24z"/><path d="m224 328h24v16h-24z"/><path d="m224 360h24v16h-24z"/><path d="m224 392h24v16h-24z"/></g><path d="m248 416h248v16h-248z" fill="#a6cfff"/><path d="m304 96 184 184v-80l-144-144 16-16h-72v72z" fill="#02c26a"/></svg>