<svg id="Capa_1" enable-background="new 0 0 512 512" height="512" viewBox="0 0 512 512" width="512" xmlns="http://www.w3.org/2000/svg"><g><path d="m360.499 308.625h-24.879c-3.742 0-7.133-2.309-8.398-5.831-1.374-3.827-2.928-7.567-4.651-11.212-1.593-3.37-.836-7.386 1.8-10.022l17.619-17.619c5.65-5.65 5.65-14.811 0-20.461l-31.611-31.611c-5.65-5.65-14.811-5.65-20.461 0l-17.619 17.619c-2.636 2.636-6.652 3.393-10.022 1.8-3.645-1.723-7.386-3.277-11.212-4.651-3.522-1.265-5.831-4.656-5.831-8.398v-24.879c0-7.991-6.478-14.468-14.468-14.468h-44.705c-7.99 0-14.468 6.478-14.468 14.468v24.878c0 3.742-2.309 7.133-5.831 8.398-3.827 1.374-7.567 2.928-11.212 4.651-3.37 1.593-7.386.836-10.022-1.8l-17.619-17.619c-5.65-5.65-14.811-5.65-20.461 0l-31.611 31.612c-5.65 5.65-5.65 14.811 0 20.461l17.619 17.619c2.636 2.636 3.393 6.652 1.8 10.022-1.723 3.645-3.277 7.386-4.651 11.212-1.265 3.522-4.656 5.831-8.398 5.831h-24.879c-7.99 0-14.468 6.478-14.468 14.468v44.705c0 7.991 6.478 14.468 14.468 14.468h24.878c3.742 0 7.133 2.309 8.398 5.831 1.374 3.827 2.928 7.567 4.651 11.212 1.593 3.37.836 7.386-1.8 10.022l-17.618 17.619c-5.65 5.65-5.65 14.811 0 20.461l31.611 31.611c5.65 5.65 14.811 5.65 20.461 0l17.619-17.619c2.636-2.636 6.652-3.393 10.022-1.8 3.645 1.723 7.386 3.277 11.212 4.651 3.522 1.265 5.831 4.656 5.831 8.398v24.878c0 7.991 6.478 14.468 14.468 14.468h44.705c7.99 0 14.468-6.478 14.468-14.468v-24.878c0-3.742 2.309-7.133 5.831-8.398 3.827-1.374 7.567-2.928 11.212-4.651 3.37-1.593 7.386-.836 10.022 1.8l17.619 17.619c5.65 5.65 14.811 5.65 20.461 0l31.611-31.611c5.65-5.65 5.65-14.811 0-20.461l-17.619-17.619c-2.636-2.636-3.393-6.652-1.8-10.022 1.723-3.645 3.277-7.386 4.651-11.212 1.265-3.522 4.656-5.831 8.398-5.831h24.878c7.99 0 14.468-6.478 14.468-14.468v-44.705c.001-7.99-6.477-14.468-14.467-14.468zm-152.086 99.781c-34.772 0-62.96-28.188-62.96-62.96s28.188-62.96 62.96-62.96 62.96 28.188 62.96 62.96c.001 34.772-28.188 62.96-62.96 62.96z" fill="#a79ba7"/><path d="m360.501 308.621h-24.879c-2.874 0-5.542-1.36-7.191-3.595 3.152 12.96 4.821 26.496 4.821 40.424 0 13.918-1.669 27.444-4.811 40.393 1.648-2.215 4.316-3.575 7.18-3.575h24.879c7.984 0 14.464-6.48 14.464-14.474v-44.699c.001-7.994-6.479-14.474-14.463-14.474zm-18.512-65.138-31.606-31.616c-5.656-5.645-14.814-5.645-20.47 0l-9.859 9.859c18.451 17.482 32.986 39.064 42.176 63.274.433-1.267 1.154-2.452 2.143-3.441l17.616-17.616c5.656-5.656 5.656-14.814 0-20.46zm0 183.465-17.616-17.616c-.989-.989-1.71-2.174-2.143-3.441-9.189 24.209-23.725 45.781-42.165 63.284l9.848 9.849c5.656 5.645 14.814 5.645 20.47 0l31.606-31.616c5.656-5.646 5.656-14.804 0-20.46zm-142.659 85.051h31.441c7.984 0 14.464-6.48 14.464-14.464v-2.843c-14.186 7.861-29.608 13.753-45.905 17.307zm31.431-333.108h-31.431c16.298 3.564 31.719 9.457 45.905 17.307v-2.833c0-7.994-6.48-14.474-14.474-14.474z" fill="#918291"/><path d="m213.226 127.579-20.882-10.423c-2.268-1.132-3.64-3.517-3.456-6.045.115-1.579.176-3.173.176-4.782s-.061-3.203-.176-4.782c-.184-2.529 1.188-4.913 3.456-6.045l20.882-10.423c4.344-2.168 6.107-7.447 3.939-11.791l-12.13-24.301c-2.168-4.344-7.447-6.107-11.79-3.939l-20.882 10.422c-2.3 1.148-5.041.75-6.984-.933-5.476-4.741-11.711-8.626-18.499-11.452-2.37-.987-3.947-3.261-3.947-5.829v-23.327c0-4.855-3.935-8.79-8.79-8.79h-27.161c-4.855 0-8.79 3.935-8.79 8.79v23.328c0 2.567-1.577 4.842-3.947 5.829-6.788 2.827-13.023 6.711-18.499 11.452-1.943 1.682-4.685 2.081-6.984.933l-20.882-10.424c-4.344-2.168-9.622-.405-11.79 3.939l-12.13 24.301c-2.168 4.344-.405 9.622 3.939 11.79l20.881 10.424c2.268 1.132 3.64 3.517 3.456 6.045-.115 1.579-.176 3.173-.176 4.782s.061 3.203.176 4.782c.184 2.529-1.188 4.913-3.456 6.046l-20.882 10.423c-4.344 2.168-6.107 7.447-3.939 11.791l12.13 24.301c2.168 4.344 7.447 6.107 11.79 3.939l20.882-10.423c2.3-1.148 5.041-.75 6.984.933 5.476 4.741 11.711 8.626 18.499 11.452 2.37.987 3.947 3.261 3.947 5.829v23.328c0 4.855 3.935 8.79 8.79 8.79h27.161c4.855 0 8.79-3.935 8.79-8.79v-23.328c0-2.567 1.577-4.842 3.947-5.829 6.788-2.827 13.023-6.711 18.499-11.452 1.943-1.682 4.685-2.081 6.984-.933l20.882 10.423c4.344 2.168 9.622.405 11.79-3.939l12.13-24.301c2.169-4.344.406-9.623-3.938-11.791zm-92.664 5.297c-14.662 0-26.548-11.886-26.548-26.548s11.886-26.548 26.548-26.548 26.548 11.886 26.548 26.548-11.886 26.548-26.548 26.548z" fill="#b5adb6"/><path d="m445.723 490.984-51.635 20.524c-3.208 1.528-6.942-.677-7.16-4.224l-6.912-55.134c-.245-4.024 4.095-6.673 7.557-4.63l11.958 7.065c1.931 1.141 4.411.521 5.604-1.379 36.739-58.503 35.876-135.295-5.657-193.409-4.734-6.623-3.697-15.744 2.515-21.006 6.937-5.876 17.411-4.563 22.703 2.83 48.843 68.24 50.077 158.371 7.272 227.272-1.214 1.954-.567 4.526 1.414 5.696l12.746 7.533c3.46 2.045 3.229 7.135-.405 8.862z" fill="#99e6fc"/><path d="m445.718 490.983-51.632 20.521c-3.204 1.535-6.943-.67-7.16-4.224l-.742-5.872 52.251-20.356c1.03-.494 1.782-1.257 2.256-2.143l5.439 3.214c3.461 2.04 3.224 7.13-.412 8.86z" fill="#62dbfb"/><path d="m477.403 73.789h-34.416c-3.345 0-6.058-2.712-6.058-6.058v-61.957c0-6.3-8.658-8.036-11.087-2.224l-40.045 95.815c-3.181 7.611 2.41 16.007 10.659 16.007h34.415c3.345 0 6.058 2.712 6.058 6.058v61.958c0 6.3 8.658 8.036 11.087 2.224l40.045-95.815c3.182-7.612-2.409-16.008-10.658-16.008z" fill="#fee97d"/><g><path d="m477.403 73.789h-25.807c8.249 0 13.84 8.396 10.659 16.007l-25.326 60.596v32.996c0 6.3 8.658 8.036 11.087 2.224l40.045-95.815c3.182-7.612-2.409-16.008-10.658-16.008z" fill="#fcdd5b"/></g><path d="m212.176 266.438-19.249-.282c-37.167 7.244-65.308 40.035-65.308 79.289 0 38.981 28.526 71.743 65.308 79.289l19.468-1.31s65.746-20.111 65.746-77.98c.001-60.444-65.965-79.006-65.965-79.006zm-3.763 128.853c-27.529 0-49.845-22.316-49.845-49.845s22.316-49.845 49.845-49.845 49.845 22.316 49.845 49.845c.001 27.528-22.316 49.845-49.845 49.845z" fill="#6c7fd8"/><g><path d="m208.413 264.651c-5.297 0-10.471.528-15.486 1.505 36.202 7.058 63.823 38.358 65.231 76.256.131 2.004.131 4.062 0 6.066-1.408 37.898-29.029 69.198-65.231 76.256 5.015.978 10.189 1.505 15.486 1.505 44.55 0 80.795-36.245 80.795-80.795 0-44.549-36.245-80.793-80.795-80.793z" fill="#4f66d0"/></g><g fill="#a79ba7"><path d="m195.478 93.936 17.747-8.859c4.344-2.168 6.107-7.447 3.939-11.79l-12.13-24.301c-2.168-4.344-7.447-6.107-11.79-3.939l-13.089 6.533c8.058 12.5 13.435 26.889 15.323 42.356z"/><path d="m142.933 17.169v-3.241c0-4.855-3.935-8.79-8.79-8.79h-27.161c-.94 0-1.845.151-2.694.424 13.881 1.258 26.953 5.314 38.645 11.607z"/><path d="m104.288 207.094c.85.273 1.754.425 2.694.425h27.161c4.854 0 8.79-3.935 8.79-8.79v-3.241c-11.692 6.292-24.764 10.348-38.645 11.606z"/><path d="m213.226 127.579-17.747-8.859c-1.889 15.467-7.265 29.857-15.322 42.357l13.089 6.533c4.344 2.168 9.622.404 11.79-3.939l12.13-24.301c2.167-4.344.403-9.623-3.94-11.791z"/></g><g><path d="m348.369 103.843h-9.262v-9.262c0-4.267-3.459-7.726-7.726-7.726-4.268 0-7.726 3.459-7.726 7.726v9.262h-9.263c-4.268 0-7.726 3.459-7.726 7.726s3.459 7.726 7.726 7.726h9.263v9.262c0 4.267 3.459 7.726 7.726 7.726 4.268 0 7.726-3.459 7.726-7.726v-9.262h9.262c4.268 0 7.726-3.459 7.726-7.726s-3.458-7.726-7.726-7.726z" fill="#c8effe"/></g><circle cx="286.102" cy="155.644" fill="#dff6fd" r="7.726"/></g></svg>