<svg id="Icons" height="512" viewBox="0 0 60 60" width="512" xmlns="http://www.w3.org/2000/svg"><path d="m18 32v-3a7 7 0 0 1 7-7h6a7 7 0 0 1 7 7v3z" fill="#db464e"/><path d="m20 12v-3a8 8 0 0 1 8-8 8 8 0 0 1 8 8v3z" fill="#203242"/><path d="m10 42h36v15h-36z" fill="#4c2725"/><path d="m42 43h-28l-2-7h33z" fill="#663531"/><path d="m42 37 4-2v-3a1 1 0 0 0 -1-1h-34a1 1 0 0 0 -1 1v3l4 2z" fill="#77413a"/><path d="m31 19.19v2.81a3 3 0 0 1 -3 3 3 3 0 0 1 -3-3v-2.81z" fill="#e8bcb1"/><path d="m22 10v-.089a2.068 2.068 0 0 1 3.187-1.684 5.5 5.5 0 0 0 5.624 0 2.068 2.068 0 0 1 3.189 1.684v.089a2 2 0 0 1 0 4 6 6 0 0 1 -12 0 2 2 0 0 1 0-4z" fill="#fdd1c3"/><path d="m44 16v2.951a1.049 1.049 0 0 0 1.66.85l5.34-3.801h6a2.006 2.006 0 0 0 2-2v-11a2.006 2.006 0 0 0 -2-2h-15a2.006 2.006 0 0 0 -2 2v11a2.006 2.006 0 0 0 2 2z" fill="#33bc95"/><path d="m54 7h-9a1 1 0 0 1 0-2h9a1 1 0 0 1 0 2z" fill="#329677"/><path d="m50 12h-5a1 1 0 0 1 0-2h5a1 1 0 0 1 0 2z" fill="#329677"/><path d="m35 59h-14a2 2 0 0 1 -2-2 9 9 0 0 1 9-9 9 9 0 0 1 9 9 2 2 0 0 1 -2 2z" fill="#db464e"/><path d="m33 40v3a5 5 0 0 1 -10 0v-3z" fill="#fdd1c3"/><path d="m33 40c0 4-5 4-5 4s-5 0-5-4a5 5 0 1 1 10 0z" fill="#203242"/><path d="m53 59h-14a2 2 0 0 1 -2-2 9 9 0 0 1 9-9 9 9 0 0 1 9 9 2 2 0 0 1 -2 2z" fill="#fcc230"/><path d="m51 40v3a5 5 0 0 1 -10 0v-3z" fill="#91514c"/><path d="m51 40c0 4-5 4-5 4s-5 0-5-4a5 5 0 1 1 10 0z" fill="#332524"/><path d="m17 59h-14a2 2 0 0 1 -2-2 9 9 0 0 1 9-9 9 9 0 0 1 9 9 2 2 0 0 1 -2 2z" fill="#fcc230"/><path d="m15 40v3a5 5 0 0 1 -10 0v-3z" fill="#91514c"/><path d="m15 40c0 4-5 4-5 4s-5 0-5-4a5 5 0 1 1 10 0z" fill="#332524"/></svg>