<svg id="Layer_1" enable-background="new 0 0 68 68" height="512" viewBox="0 0 68 68" width="512" xmlns="http://www.w3.org/2000/svg"><g><g><path d="m58.5151367 6.0795898v55.8300782c0 2.2602539-1.8300781 4.090332-4.0900879 4.090332h-40.8500976c-1.2099609 0-2.3000488-.5302734-3.0397949-1.3701172-.6501465-.7202148-1.050293-1.6699219-1.050293-2.7202148v-55.8300782c0-2.25 1.8300781-4.0795898 4.0900879-4.0795898h40.8500977c1.2099609 0 2.3000488.5297852 3.0400391 1.3696289.6499022.7099609 1.0500487 1.6601563 1.0500487 2.7099609z" fill="#435e88"/></g><g><path d="m58.5151367 6.0770988v55.8300782c0 2.2597694-1.8300781 4.0898476-4.0900879 4.0898476h-40.8500976c-1.2099609 0-2.3000488-.5302734-3.0397949-1.3701172l46.9299316-61.2597693c.6499023.7099607 1.0500488 1.6596678 1.0500488 2.7099607z" fill="#33527d"/></g><g><path d="m53.3549805 9.1499023v11.5c0 1.0498047-.8598633 1.909668-1.9099121 1.909668h-34.8901368c-1.0500488 0-1.9099121-.8598633-1.9099121-1.909668v-11.4902343c0-1.1000977.8999023-2.0097656 2-2.0097656h34.7099609c1.1101075-.0000001 2.0000001.8999023 2.0000001 1.9999999z" fill="#5cbeff"/></g><g><path d="m53.3549805 9.1469231v11.5c0 1.0600586-.8598633 1.9101563-1.9099121 1.9101563h-4.420166c1.0600586 0 1.9101563-.8500977 1.9101563-1.9101563v-11.5c0-1.1000977-.8901367-1.9897461-1.9899902-1.9897461h4.4099121c1.1101073 0 1.9999999.8896484 1.9999999 1.9897461z" fill="#079cff"/></g><g><g><g><path d="m25.0449219 30.1499023v5.3999023c0 .9501953-.7700195 1.7197266-1.7199707 1.7197266h-5.3999023c-.9499512 0-1.7199707-.7695313-1.7199707-1.7197266v-5.3999023c0-.9501953.7700195-1.7202148 1.7199707-1.7202148h5.3999023c.9499511 0 1.7199707.7700195 1.7199707 1.7202148z" fill="#e5e8ef"/></g><g><path d="m25.0449219 53.6298828v5.4101563c0 .9394531-.7700195 1.7099609-1.7199707 1.7099609h-5.3999023c-.9499512 0-1.7199707-.7705078-1.7199707-1.7099609v-5.4101563c0-.9399414.7700195-1.7099609 1.7199707-1.7099609h5.3999023c.9499511 0 1.7199707.7700195 1.7199707 1.7099609z" fill="#e5e8ef"/></g><g><path d="m38.4150391 41.8896484v5.4003906c0 .949707-.7600098 1.7197266-1.7099609 1.7197266h-5.4001465c-.9499512 0-1.7199707-.7700195-1.7199707-1.7197266v-5.4003906c0-.949707.7700195-1.7197266 1.7199707-1.7197266h5.4001465c.9499511.0000001 1.7099609.7700196 1.7099609 1.7197266z" fill="#e5e8ef"/></g><g><path d="m38.4150391 53.6298828v5.4101563c0 .9394531-.7600098 1.7099609-1.7099609 1.7099609h-5.4001465c-.9499512 0-1.7199707-.7705078-1.7199707-1.7099609v-5.4101563c0-.9399414.7700195-1.7099609 1.7199707-1.7099609h5.4001465c.9499511 0 1.7099609.7700195 1.7099609 1.7099609z" fill="#e5e8ef"/></g><g><path d="m25.0449219 41.8896484v5.4003906c0 .949707-.7700195 1.7197266-1.7199707 1.7197266h-5.3999023c-.9499512 0-1.7199707-.7700195-1.7199707-1.7197266v-5.4003906c0-.949707.7700195-1.7197266 1.7199707-1.7197266h5.3999023c.9499511.0000001 1.7199707.7700196 1.7199707 1.7197266z" fill="#e5e8ef"/></g><g><path d="m38.4150391 30.1499023v5.3999023c0 .9501953-.7600098 1.7197266-1.7099609 1.7197266h-5.4001465c-.9499512 0-1.7199707-.7695313-1.7199707-1.7197266v-5.3999023c0-.9501953.7700195-1.7202148 1.7199707-1.7202148h5.4001465c.9499511 0 1.7099609.7700195 1.7099609 1.7202148z" fill="#e5e8ef"/></g><g><path d="m51.7949219 30.1499023v5.3999023c0 .9501953-.7700195 1.7197266-1.7199707 1.7197266h-5.3999023c-.9499512 0-1.7199707-.7695313-1.7199707-1.7197266v-5.3999023c0-.9501953.7700195-1.7202148 1.7199707-1.7202148h5.3999023c.9499511 0 1.7199707.7700195 1.7199707 1.7202148z" fill="#e5e8ef"/></g><g><path d="m51.7949219 41.8866692v17.1503906c0 .949707-.7700195 1.7197266-1.7199707 1.7197266h-5.3999023c-.9499512 0-1.7199707-.7700195-1.7199707-1.7197266v-17.1503906c0-.9394531.7700195-1.7099609 1.7199707-1.7099609h5.3999023c.9499511-.0000001 1.7199707.7705077 1.7199707 1.7099609z" fill="#ffd80c"/></g></g></g><g><g><path d="m50.625 50.4667473c0 .2700195-.1098633.5200195-.2900391.7001953-.1799316.1699219-.4199219.2802734-.6899414.2802734h-1.2900391v1.2895508c0 .5400391-.4399414.9799805-.9799805.9799805-.2700195 0-.5200195-.1098633-.6899414-.2900391-.1801758-.1796875-.2900391-.4199219-.2900391-.6899414v-1.2895508h-1.2900391c-.5400391 0-.9799805-.4404297-.9799805-.9804688 0-.2695313.1098633-.5195313.2900391-.6899414.1799316-.1796875.4199219-.2900391.6899414-.2900391h1.2900391v-1.2895507c0-.5400391.4399414-.9804688.9799805-.9804688.2700195 0 .5200195.1103516.6999512.2900391.170166.1801758.2800293.4199219.2800293.6904297v1.2895508h1.2900391c.5400391 0 .9799805.4399414.9799805.9799805z" fill="#fff"/></g></g></g></svg>