<svg id="Capa_1" enable-background="new 0 0 512 512" height="512" viewBox="0 0 512 512" width="512" xmlns="http://www.w3.org/2000/svg"><g><g><path d="m437 128.91h-206.333c-14.558 0-28.151 4.183-39.667 11.391l-10.001 145.939 10.001 138.612c11.516 7.208 25.109 11.391 39.667 11.391h106.683l93.649 53.515.001-53.515h6c41.355 0 75-33.645 75-75v-157.333c0-41.355-33.645-75-75-75z" fill="#7aabff"/><path d="m155.667 203.91v157.333c0 26.797 14.136 50.343 35.333 63.609v-284.552c-21.197 13.267-35.333 36.813-35.333 63.61z" fill="#8dcbff"/></g><g><path d="m307 22.243h-116l-10.001 164.333 10.001 164.333h116c41.355 0 75-33.645 75-75v-178.666c0-41.355-33.645-75-75-75z" fill="#f3e8e5"/><path d="m75 22.243c-41.355 0-75 33.645-75 75v178.667c0 41.355 33.645 75 75 75h6v53.515l93.65-53.515h16.35v-328.667z" fill="#fff0e8"/></g><path d="m247.229 258.052c-17.463 0-34.511-6.569-46.771-18.024l20.48-21.921c6.765 6.32 16.347 9.945 26.29 9.945 10.364 0 17.647-6.1 18.7-11.997 1.404-7.863-10.461-12.891-14.131-14.244-3.71-1.369-7.008-2.521-9.917-3.538-10.999-3.844-18.946-6.621-27.393-13.789-10.204-8.658-15.112-21.509-13.129-34.376 2.147-13.934 11.702-25.423 26.214-31.521 12.237-5.143 26.53-4.575 41.334 1.641 10.013 4.205 16.979 9.613 17.741 10.216l-9.313 11.763-9.251 11.803c-4.319-3.349-18.897-11.964-28.89-7.766-4.679 1.966-7.663 5.04-8.186 8.433-.394 2.555.632 5.017 2.889 6.931 3.994 3.389 7.713 4.791 17.881 8.343 3.023 1.057 6.45 2.254 10.402 3.712 28.909 10.663 36.147 31.613 33.282 47.664-3.798 21.28-24.083 36.725-48.232 36.725z" fill="#cf3f59"/><path d="m169.542 145.1v-30h-77.593v142.952h77.593v-30h-47.593v-26.476h44.084v-30h-44.084v-26.476z" fill="#e26058"/></g></svg>