<svg id="Layer_1" height="512" viewBox="0 0 64 64" width="512" xmlns="http://www.w3.org/2000/svg" data-name="Layer 1"><path d="m54 63h-4-4v-8h12v8z" fill="#f2f2f2"/><path d="m42 63h-4v-4-4h8v8z" fill="#e6e6e6"/><path d="m34 55h-4-4v4 4h12v-4-4z" fill="#f2f2f2"/><path d="m22 63h-4v-8h8v4 4z" fill="#e6e6e6"/><path d="m14 63h-4-4v-8h12v8z" fill="#f2f2f2"/><path d="m6 42h12v4h-12z" fill="#ccc"/><path d="m6 46h12v9h-12z" fill="#b3b3b3"/><path d="m30 51h4v4h-4z" fill="#999"/><path d="m18 46v9h8 4v-4h4v4h4 8v-9z" fill="#ccc"/><path d="m46 46h12v9h-12z" fill="#b3b3b3"/><path d="m46 42h12v4h-12z" fill="#ccc"/><path d="m46 42v4l-14-7h14z" fill="#e6e6e6"/><path d="m32 39-14 7v-4-3z" fill="#e6e6e6"/><path d="m32 39 14 7h-28z" fill="#f2f2f2"/><path d="m46 33v6h-14-14v-6z" fill="#ccc"/><path d="m20 29h24 2v4h-28v-4z" fill="#f2f2f2"/><path d="m44 23v6h-24v-6h7 10z" fill="#ccc"/><path d="m34 6v5h-2-2v-5h2z" fill="#ccc"/><path d="m34 11a12.54 12.54 0 0 1 7.15 4.42 12.109 12.109 0 0 1 2.85 7.58h-7c0-5.39-2.13-10.83-5-12z" fill="#e6e6e6"/><path d="m37 23h-10c0-5.39 2.13-10.83 5-12 2.87 1.17 5 6.61 5 12z" fill="#f2f2f2"/><path d="m30 11h2c-2.87 1.17-5 6.61-5 12h-7a12.767 12.767 0 0 1 10-12z" fill="#e6e6e6"/><path d="m21 33h2v6h-2z" fill="#e6e6e6"/><path d="m10 58a1 1 0 0 0 -1 1v4h2v-4a1 1 0 0 0 -1-1z" fill="#ccc"/><path d="m14 58a1 1 0 0 0 -1 1v4h2v-4a1 1 0 0 0 -1-1z" fill="#ccc"/><path d="m54 58a1 1 0 0 0 -1 1v4h2v-4a1 1 0 0 0 -1-1z" fill="#ccc"/><path d="m41 59h2v4h-2z" fill="#ccc"/><path d="m21 59h2v4h-2z" fill="#ccc"/><path d="m50 58a1 1 0 0 0 -1 1v4h2v-4a1 1 0 0 0 -1-1z" fill="#ccc"/><g fill="#e6e6e6"><path d="m39 23h2v6h-2z"/><path d="m35 23h2v6h-2z"/><path d="m27 23h2v6h-2z"/><path d="m31 23h2v6h-2z"/><path d="m41 33h2v6h-2z"/><path d="m26 33h2v6h-2z"/><path d="m36 33h2v6h-2z"/><path d="m23 23h2v6h-2z"/><path d="m31 33h2v6h-2z"/></g><path d="m26 58h12v2h-12z" fill="#ccc"/><path d="m9 46h2v9h-2z" fill="#ccc"/><path d="m13 46h2v9h-2z" fill="#ccc"/><path d="m21 46h2v9h-2z" fill="#e6e6e6"/><path d="m26 46h2v9h-2z" fill="#e6e6e6"/><path d="m37 46h2v9h-2z" fill="#e6e6e6"/><path d="m53 46h2v9h-2z" fill="#ccc" transform="matrix(-1 0 0 -1 108 101)"/><path d="m49 46h2v9h-2z" fill="#ccc" transform="matrix(-1 0 0 -1 100 101)"/><path d="m41 46h2v9h-2z" fill="#e6e6e6" transform="matrix(-1 0 0 -1 84 101)"/><path d="m33 1a1 1 0 0 0 -2 0v5h2z" fill="#e6e6e6"/></svg>